<?xml version="1.0" encoding="UTF-8"?>
<svg id="Layer_2" data-name="Layer 2" xmlns="http://www.w3.org/2000/svg" viewBox="0 0 142.02 139.13">
  <defs>
    <style>
      .cls-1 {
        fill: #fff;
      }
    </style>
  </defs>
  <g id="Layer_1-2" data-name="Layer 1">
    <path d="M111.13,16.19l2.37-.12,1.51,2.48c-.26,1.17-5.75,4.84-6.47,6.53-3.42,7.99,8.82,35.87,17.42,38.54l16.05-.04c.66,4.13-14.72,2.86-17,3.98-1.16.57-14.16,18.48-15.18,20.82-3.08,7.06-4.36,14.48.18,21.2,1.82,2.69,5.88,4.69,7.38,6.4,2.08,2.37-.73,4.98-3.25,3.95-.75-2.66-8.82-10.06-10.82-10.66-9.63-2.89-26.89,5.13-34.62,10.98-6.63,5.02-4.32,8.72-5.72,16.32-.26,1.42.96,2.9-1.46,2.51-4.22-.69-.74-9.31-.85-12.7-.36-11.05-28.09-20.05-35.96-15.37-.64.38-6.08,8.88-7.69,7.05-1.15-6.01,6.64-7.15,7.09-12.48.85-10.13-7.61-27.37-12.21-36.4l-11.89.88v-2.99c9.91,2.31,15.64-7.15,20.03-14.48,4.02-6.71,11.13-21.11,7.39-28.45-1-1.97-6.23-5.45-5.41-7.57,1.81-4.66,6.84,4.68,8.93,6.05,7.13,4.68,31.03-1.26,34.54-9.58,1.05-2.49-.09-12.84,1.02-12.99,6.43-.86,1.34,9.12,4.48,13.49,5.96,8.3,35.63,18.87,40.13,2.65ZM43.2,39.85c10.83.08,25.85-9.14,22.79-21.79-9.16,7.33-19.5,9.34-30.99,10.01l8.2,11.78ZM100.01,28.07c-11.57,1.42-21.04-5.57-31-10,1.38,6.85-.76,11.07,6.29,15.2,10.74,6.3,17.38,4.45,24.71-5.2ZM105.51,65.06h14.5c-7.72-10.56-14.46-22.62-15.51-36.01-11.52,5.81-11.66,17.67-6.04,28.06.82,1.52,5.98,7.64,7.05,7.95ZM27.77,64.81c.69-.4,9.17-10.97,10.06-12.44,1.57-2.57,2.73-5.41,3.73-8.24l-9.06-13.07c-3.36,12.75-9.21,24.23-17.49,34.5,2.33.91,10.95.29,12.75-.75ZM47.01,43.07c2.69,9.37,12.01,5.96,16.81.3l1.18-10.31c-5.25,4.33-11.33,8.39-17.99,10.01ZM87.01,40.07c-3.49-.02-6.82-1.25-9.99-2.52-2.38-.95-7.98-6.02-8.87-2.84-2.08,7.46,1.07,12.24,8.62,13.18,4.4.55,7.49-4.78,10.23-7.82ZM99,65.05c-1.13-3.29-3.39-5.2-4.77-8.72-1.8-4.61-1.95-9.69-3.72-14.27-7.49,5.19-11.33,16.72-2.79,22.79l11.28.2ZM32.01,65.05c10.7,1.57,14.72-2.52,17.03-12.45l-4.54-5.53-12.49,17.99ZM77,51.07l-9.99-4.01c-1.21,8.48,5.58,12.21,9.99,4.01ZM63,49.06c-.55-.61-4.97,1.94-6.02,2.52-.93.51-2.67.11-1.96,1.96,1.06,2.79,5.44,2.76,7.99,2.52v-7ZM82.01,65.05l-2.49-11.98c-5.32,4.61-6.89,13.07,2.49,11.98ZM48.01,64.05c6.86,2.02,11.16-3.3,4.5-7.97l-4.5,7.97ZM44.78,68.27l-11.77-.21c1.27,3.91,4.13,7.09,5.32,11.17.93,3.21.54,6.64,1.69,9.82,8.27-4.86,7.74-12.65,4.76-20.79ZM50.02,79.06c6.2-3.4,6.88-10.71-1-11.99l1,11.99ZM27.02,103.06l9.44-9.95c-.27-8.94-2.16-17.85-8.46-24.61l-11.99.56c4.9,10.91,9.58,21.95,11.01,33.99ZM84.01,68.07c-10.65-1.3-13.08,6.07-4.49,11.99l4.49-11.99ZM100,68.06c-7.36.53-11.77-2.73-15.19,5.3-3.67,8.64-.72,12.04,5.7,17.69.07-8.91,6.15-15.31,9.49-22.99ZM120.01,68.06h-14.5c-1.06,0-6.82,8.7-7.67,10.33-6.31,12.17-5.06,17.97,6.16,25.67-.51-6.04.34-11.2,2.82-16.69,3.19-7.08,10.07-12.14,13.19-19.31ZM76,82.05c-6.77-9.76-10.88-8.28-9.99,4.01l9.99-4.01ZM62,85.06c.2-3.29.24-6.72-2.52-9l-6.45,5.5,8.97,3.5ZM86,93.05c-4.78-5.34-4.61-10.81-12.68-7.16-7.16,3.23-9.31,8.43-8.3,16.18,6.52-4.79,12.93-7.71,20.99-9.01ZM60.99,101.05c.84-3.56,1.14-12.36-2.25-14.23-7.65-4.22-12.66.71-17.73,5.75-.98,2.27,6.12,1.46,8.02,1.96,2.17.56,11.42,6.95,11.96,6.53ZM100.01,106.05c-2.17-1.69-8.99-9.33-10.73-9.83-3.91-1.11-14.76,2.98-18.21,5.4-6.56,4.6-6.97,9.75-7.05,17.44,11.52-6.07,22.09-14.54,35.99-13.01ZM61,118.06c1.34-10.34-1.23-15.81-11.01-19.49-10.77-4.05-13.39-.88-19.98,6.99,11.26,1.85,22.53,4.28,30.99,12.49Z"/>
    <path class="cls-1" d="M105.51,65.06c-1.07-.3-6.23-6.43-7.05-7.95-5.62-10.39-5.48-22.25,6.04-28.06,1.05,13.39,7.79,25.45,15.51,36.01h-14.5Z"/>
    <path class="cls-1" d="M120.01,68.06c-3.13,7.17-10,12.23-13.19,19.31-2.48,5.49-3.33,10.65-2.82,16.69-11.22-7.7-12.47-13.5-6.16-25.67.85-1.64,6.61-10.33,7.67-10.33h14.5Z"/>
    <path class="cls-1" d="M27.77,64.81c-1.8,1.04-10.42,1.66-12.75.75,8.28-10.27,14.13-21.75,17.49-34.5l9.06,13.07c-1,2.83-2.17,5.68-3.73,8.24-.89,1.47-9.37,12.04-10.06,12.44Z"/>
    <path class="cls-1" d="M27.02,103.06c-1.42-12.04-6.11-23.09-11.01-33.99l11.99-.56c6.29,6.76,8.19,15.67,8.46,24.61l-9.44,9.95Z"/>
    <path class="cls-1" d="M100.01,106.05c-13.9-1.53-24.47,6.94-35.99,13.01.09-7.69.5-12.83,7.05-17.44,3.45-2.42,14.3-6.52,18.21-5.4,1.74.5,8.56,8.14,10.73,9.83Z"/>
    <path class="cls-1" d="M43.2,39.85l-8.2-11.78c11.49-.67,21.83-2.68,30.99-10.01,3.05,12.65-11.96,21.87-22.79,21.79Z"/>
    <path class="cls-1" d="M61,118.06c-8.46-8.22-19.72-10.65-30.99-12.49,6.59-7.87,9.21-11.04,19.98-6.99,9.78,3.68,12.34,9.14,11.01,19.49Z"/>
    <path class="cls-1" d="M100.01,28.07c-7.33,9.65-13.96,11.5-24.71,5.2-7.05-4.14-4.91-8.35-6.29-15.2,9.96,4.43,19.43,11.43,31,10Z"/>
    <path class="cls-1" d="M99,65.05l-11.28-.2c-8.54-6.06-4.7-17.6,2.79-22.79,1.77,4.58,1.93,9.66,3.72,14.27,1.37,3.52,3.64,5.43,4.77,8.72Z"/>
    <path class="cls-1" d="M100,68.06c-3.34,7.68-9.42,14.08-9.49,22.99-6.42-5.65-9.37-9.05-5.7-17.69,3.42-8.03,7.83-4.77,15.19-5.3Z"/>
    <path class="cls-1" d="M86,93.05c-8.06,1.3-14.47,4.22-20.99,9.01-1-7.75,1.14-12.94,8.3-16.18,8.07-3.65,7.9,1.83,12.68,7.16Z"/>
    <path class="cls-1" d="M60.99,101.05c-.54.42-9.79-5.96-11.96-6.53-1.9-.49-9,.31-8.02-1.96,5.07-5.03,10.08-9.97,17.73-5.75,3.39,1.87,3.09,10.67,2.25,14.23Z"/>
    <path class="cls-1" d="M44.78,68.27c2.98,8.13,3.5,15.93-4.76,20.79-1.15-3.18-.76-6.61-1.69-9.82-1.19-4.09-4.04-7.26-5.32-11.17l11.77.21Z"/>
    <path class="cls-1" d="M87.01,40.07c-2.74,3.04-5.83,8.37-10.23,7.82-7.55-.95-10.71-5.73-8.62-13.18.89-3.18,6.49,1.89,8.87,2.84,3.17,1.27,6.5,2.5,9.99,2.52Z"/>
    <path class="cls-1" d="M32.01,65.05l12.49-17.99,4.54,5.53c-2.31,9.93-6.33,14.03-17.03,12.45Z"/>
    <path class="cls-1" d="M47.01,43.07c6.65-1.62,12.73-5.68,17.99-10.01l-1.18,10.31c-4.8,5.66-14.11,9.08-16.81-.3Z"/>
    <path class="cls-1" d="M84.01,68.07l-4.49,11.99c-8.59-5.92-6.15-13.28,4.49-11.99Z"/>
    <path class="cls-1" d="M76,82.05l-9.99,4.01c-.89-12.29,3.22-13.77,9.99-4.01Z"/>
    <path class="cls-1" d="M82.01,65.05c-9.38,1.09-7.81-7.38-2.49-11.98l2.49,11.98Z"/>
    <path class="cls-1" d="M77,51.07c-4.4,8.2-11.2,4.47-9.99-4.01l9.99,4.01Z"/>
    <path class="cls-1" d="M62,85.06l-8.97-3.5,6.45-5.5c2.76,2.28,2.72,5.71,2.52,9Z"/>
    <path class="cls-1" d="M50.02,79.06l-1-11.99c7.88,1.28,7.2,8.6,1,11.99Z"/>
    <path class="cls-1" d="M63,49.06v7c-2.54.24-6.93.27-7.98-2.52-.7-1.85,1.04-1.45,1.96-1.96,1.05-.58,5.47-3.13,6.02-2.52Z"/>
    <path class="cls-1" d="M48.01,64.05l4.5-7.97c6.66,4.67,2.36,9.99-4.5,7.97Z"/>
  </g>
</svg>